<svg xmlns="http://www.w3.org/2000/svg" width="32.927" height="43.769" viewBox="0 0 32.927 43.769">
  <g id="checklist" transform="translate(-53.982 -8.355)">
    <path id="Path_63" data-name="Path 63" d="M62.17,14.308c0-.808,0-1.562,0-2.315,0-.657.229-.889.875-.891.994,0,1.988.01,2.981-.013a.58.58,0,0,0,.417-.264,4.428,4.428,0,0,1,7.937-.016.478.478,0,0,0,.514.3c.994-.01,1.987-.007,2.981,0,.6,0,.84.242.844.832.005.769,0,1.539,0,2.37.2,0,.367,0,.538,0,1.436.026,2.885-.056,4.307.105A3.859,3.859,0,0,1,86.9,18.265q.012,14.949,0,29.9a4.008,4.008,0,0,1-3.859,3.952c-.133.007-.267.008-.4.008q-12.19,0-24.381,0a4.318,4.318,0,0,1-2.178-.521,3.883,3.883,0,0,1-2.1-3.6q0-14.771,0-29.542a4.5,4.5,0,0,1,.045-.753,4.05,4.05,0,0,1,3.939-3.391C59.348,14.288,60.726,14.308,62.17,14.308Zm0,1.421c-1.4,0-2.743-.012-4.089,0a2.615,2.615,0,0,0-2.674,2.713q0,14.77,0,29.54a2.6,2.6,0,0,0,2.674,2.709q12.368.014,24.735,0a2.6,2.6,0,0,0,2.667-2.716q0-14.77,0-29.54a2.518,2.518,0,0,0-2.329-2.666c-1.457-.1-2.926-.023-4.434-.023,0,.729,0,1.436,0,2.144-.006.61-.259.86-.871.86q-7.407,0-14.814,0c-.606,0-.857-.254-.862-.868C62.166,17.188,62.17,16.492,62.17,15.729Zm1.443,1.57H77.26V12.525c-1.045,0-2.053,0-3.06,0-.59,0-.762-.129-.933-.676a2.914,2.914,0,0,0-2.748-2.08,2.969,2.969,0,0,0-2.91,1.994c-.24.682-.35.762-1.054.762H63.613Z" transform="translate(0 0)" fill="#fff"/>
    <path id="Path_64" data-name="Path 64" d="M96.674,128.927c0,.771,0,1.511,0,2.251,0,.606-.225.829-.833.83q-2.113,0-4.226,0c-.667,0-.9-.243-.9-.917,0-2.773.007-5.545,0-8.318a3.174,3.174,0,0,1,1.177-2.619,3.048,3.048,0,0,0,.965-1.444c.447-1.286.936-2.557,1.413-3.833a2.346,2.346,0,0,1,2.379-1.643q6.338,0,12.677,0a2.349,2.349,0,0,1,2.377,1.65c.534,1.428,1.049,2.863,1.6,4.285a2.305,2.305,0,0,0,.51.808,3.641,3.641,0,0,1,1.122,2.795c-.027,2.758-.008,5.515-.009,8.273,0,.733-.223.961-.947.962q-2.09,0-4.181,0c-.608,0-.829-.224-.832-.831,0-.74,0-1.48,0-2.251Zm6.136-1.455h4.135c1.838,0,3.675,0,5.513,0,.592,0,1.012-.31,1.02-.827.023-1.481.035-2.964-.011-4.445a1.671,1.671,0,0,0-1.338-1.489H93.767c-.118,0-.272-.033-.347.027-.621.5-1.3.954-1.288,1.9.017,1.23,0,2.46,0,3.69,0,.838.313,1.147,1.16,1.147Zm8.928-8.208a.708.708,0,0,0-.017-.151c-.469-1.278-.936-2.556-1.411-3.831a.958.958,0,0,0-1.016-.628q-6.313.007-12.627,0a.953.953,0,0,0-1.072.736c-.337.9-.667,1.8-1,2.706-.141.382-.28.764-.427,1.164ZM92.148,130.556h3.068v-1.712H92.148Zm18.245,0h3.072v-1.693h-3.072Z" transform="translate(-32.369 -92.434)" fill="#fff"/>
    <path id="Path_65" data-name="Path 65" d="M118.871,322.461q4.47,0,8.94,0a1.735,1.735,0,0,1,.484.035.662.662,0,0,1,.511.7.679.679,0,0,1-.6.675,2.329,2.329,0,0,1-.444.015H109.975c-.074,0-.148,0-.222,0-.508-.013-.84-.309-.824-.734a.734.734,0,0,1,.824-.687Q114.312,322.457,118.871,322.461Z" transform="translate(-48.426 -276.834)" fill="#fff"/>
    <path id="Path_66" data-name="Path 66" d="M138.715,289.373h-6.271a2.479,2.479,0,0,1-.4-.013.707.707,0,0,1-.6-.718.694.694,0,0,1,.6-.677,2.03,2.03,0,0,1,.4-.014h12.542c.1,0,.208-.005.311,0a.707.707,0,0,1,0,1.414c-.118.011-.237,0-.356,0Z" transform="translate(-68.268 -246.416)" fill="#fff"/>
    <path id="Path_67" data-name="Path 67" d="M161.642,189.72c1.1,0,2.194,0,3.292,0,.639,0,.887.25.891.887,0,.756.006,1.512,0,2.269,0,.581-.263.844-.844.845q-3.336.006-6.672,0c-.582,0-.84-.262-.845-.843q-.009-1.156,0-2.313c0-.583.261-.841.843-.844C159.418,189.716,160.53,189.72,161.642,189.72Zm-2.722,1.439v1.119h5.455v-1.119Z" transform="translate(-91.198 -159.843)" fill="#fff"/>
    <path id="Path_68" data-name="Path 68" d="M113.215,193.562a2.034,2.034,0,0,1-2.069-1.295,1.979,1.979,0,0,1,.529-2.189,2.481,2.481,0,0,1,2.859-.171,2,2,0,0,1,.746,2.354A2.035,2.035,0,0,1,113.215,193.562Zm-.008-1.277a2.8,2.8,0,0,0,.725-.512.679.679,0,0,0-.094-.592.973.973,0,0,0-1.246-.009.686.686,0,0,0-.105.6A2.747,2.747,0,0,0,113.207,192.285Z" transform="translate(-50.264 -159.681)" fill="#fff"/>
    <path id="Path_69" data-name="Path 69" d="M239.581,189.729a2.031,2.031,0,0,1,2.075,1.283,1.977,1.977,0,0,1-.548,2.221,2.488,2.488,0,0,1-2.824.154,1.992,1.992,0,0,1-.76-2.349A2.027,2.027,0,0,1,239.581,189.729Zm-.025,1.423a.6.6,0,0,0-.742.489.539.539,0,0,0,.414.644.922.922,0,0,0,1.107-.314C240.541,191.52,240.2,191.151,239.556,191.152Z" transform="translate(-161.653 -159.852)" fill="#fff"/>
  </g>
</svg>
