<svg xmlns="http://www.w3.org/2000/svg" width="40.399" height="43.636" viewBox="0 0 40.399 43.636">
  <g id="clipboards" transform="translate(-16.044 -0.797)">
    <path id="Path_128" data-name="Path 128" d="M32.829.8a5.948,5.948,0,0,1,2.219.921,4.67,4.67,0,0,1,1.735,2.364A2.618,2.618,0,0,0,38.618,5.92,4.611,4.611,0,0,1,41.5,8.579a.43.43,0,0,0,.466.311c1.022-.014,2.045-.012,3.068,0a3.192,3.192,0,0,1,3.328,3.288c.019,1.335.008,2.67,0,4.005a.675.675,0,0,1-.124.428c-.448.471-.92.919-1.45,1.439-.012-.214-.026-.359-.026-.5q0-2.578,0-5.156a1.659,1.659,0,0,0-1.876-1.89c-.977,0-1.955,0-2.988,0v3.2H22.513V10.525c-1.221,0-2.4-.041-3.568.016a1.519,1.519,0,0,0-1.267,1.371,4.257,4.257,0,0,0-.015.468q0,14.275,0,28.55a1.851,1.851,0,0,0,.45,1.376,1.6,1.6,0,0,0,1.218.512c1.207-.006,2.415,0,3.622,0,7.3,0,14.6-.016,21.9.016a1.793,1.793,0,0,0,1.924-1.915c-.033-3.579-.012-7.159-.012-10.738v-.586c-.229.214-.361.33-.485.454q-3.812,3.811-7.618,7.628a.906.906,0,0,1-.711.29c-1.347-.013-2.695-.006-4.089-.006-.014-.159-.035-.294-.035-.429,0-1.278-.011-2.557.009-3.835a.876.876,0,0,1,.222-.555q8.618-8.646,17.256-17.272a1.62,1.62,0,0,1,2.427-.006c.722.7,1.429,1.423,2.137,2.142a1.592,1.592,0,0,1,0,2.443q-3.562,3.578-7.142,7.139a1.144,1.144,0,0,0-.367.894q.018,6.179.007,12.357a3.254,3.254,0,0,1-2.609,3.54c-.024.007-.041.037-.061.056H18.766a.846.846,0,0,0-.15-.072,3.216,3.216,0,0,1-2.57-3.268q0-14.443,0-28.887a3.2,3.2,0,0,1,3.3-3.321c1.008-.01,2.017-.013,3.025,0a.518.518,0,0,0,.569-.362,4.583,4.583,0,0,1,2.87-2.614,2.567,2.567,0,0,0,1.813-1.8,4.628,4.628,0,0,1,1.585-2.27A5.918,5.918,0,0,1,31.551.8ZM24.171,12.111H39.7c.1,0,.2-.007.3,0,.223.016.3-.089.295-.3-.018-.553.019-1.111-.043-1.659a2.992,2.992,0,0,0-2.117-2.681A4.219,4.219,0,0,1,35.248,4.6a3.211,3.211,0,0,0-6.1.036,4.071,4.071,0,0,1-2.792,2.8,3.014,3.014,0,0,0-2.169,2.5A13.748,13.748,0,0,0,24.171,12.111Zm23.816,9.53L37.81,31.8,39.924,34,50.163,23.76ZM36.541,32.995c-.776.541-1.425,1.2-1.058,2.175A2.152,2.152,0,0,0,36.65,36.3,1.773,1.773,0,0,0,38.7,35.292ZM49.15,20.355l2.236,2.2,1-.969L50.229,19.3Zm4.428-.116,1.126-1L52.55,17.074l-1.025.982Z" transform="translate(0)" fill="#fff"/>
    <path id="Path_129" data-name="Path 129" d="M76.924,184.655V183.1H96.289v1.557Z" transform="translate(-54.395 -162.882)" fill="#fff"/>
    <path id="Path_130" data-name="Path 130" d="M77.015,230.288v-1.554h17.27c-.543.545-1.011,1.027-1.5,1.49a.568.568,0,0,1-.359.086q-7.6.005-15.2,0C77.172,230.311,77.116,230.3,77.015,230.288Z" transform="translate(-54.476 -203.656)" fill="#fff"/>
    <path id="Path_131" data-name="Path 131" d="M89.471,274.079c-.536.547-1.023,1.052-1.523,1.543-.057.056-.187.053-.283.053q-5.195,0-10.39,0a1.644,1.644,0,0,1-.2-.027v-1.569Z" transform="translate(-54.533 -244.171)" fill="#fff"/>
    <path id="Path_132" data-name="Path 132" d="M76.972,321.185v-1.552h8.034v1.552Z" transform="translate(-54.438 -284.872)" fill="#fff"/>
    <path id="Path_133" data-name="Path 133" d="M156.725,36.257a1.2,1.2,0,1,1,1.194,1.192A1.208,1.208,0,0,1,156.725,36.257Z" transform="translate(-125.695 -30.6)" fill="#fff"/>
  </g>
</svg>
