<svg xmlns="http://www.w3.org/2000/svg" width="33.636" height="33.636" viewBox="0 0 33.636 33.636">
  <g id="counterclockwise-rotation" transform="translate(-0.8 -0.801)">
    <path id="Path_54" data-name="Path 54" d="M.8,16.568c.041-.3.072-.606.124-.906A1.344,1.344,0,0,1,2.777,14.65a1.4,1.4,0,0,1,.809,1.535,13.7,13.7,0,0,0,.326,4.791A14.12,14.12,0,1,0,9.5,6.079a.592.592,0,0,0-.068.08l.9.918a2.684,2.684,0,0,1,.366.375c.1.154.242.375.2.5s-.3.23-.473.259c-.431.07-.87.094-1.306.133L6.08,8.62c-.8.072-1.114-.263-1.037-1.053.134-1.372.249-2.747.378-4.12.024-.254-.019-.57.275-.69s.472.155.655.328c.3.286.6.578.878.886a.32.32,0,0,0,.517.047,15.949,15.949,0,0,1,3.971-2.15A16.019,16.019,0,0,1,16.25.859,1.541,1.541,0,0,0,16.5.8h2.1a2.317,2.317,0,0,0,.286.054,15.172,15.172,0,0,1,4.994,1.158A16.652,16.652,0,0,1,34.164,14.628c.131.638.183,1.293.272,1.94V18.6a1.817,1.817,0,0,0-.054.253,15.963,15.963,0,0,1-1.787,6.4A16.648,16.648,0,0,1,20.61,34.166c-.618.124-1.249.182-1.875.271h-2.1c-.421-.05-.844-.089-1.264-.15A16.845,16.845,0,0,1,1,20.161c-.079-.495-.132-.994-.2-1.491Z" transform="translate(0)" fill="#fff"/>
    <path id="Path_55" data-name="Path 55" d="M184.12,78.819c0-1.762,0-3.524,0-5.286a1.1,1.1,0,0,1,.928-1.107,1.072,1.072,0,0,1,1.2.747,2.146,2.146,0,0,1,.056.584c0,2.955.008,5.91-.006,8.864a.643.643,0,0,0,.414.672c2.776,1.418,5.543,2.853,8.312,4.285a1.11,1.11,0,0,1,.54,1.52,1.088,1.088,0,0,1-1.551.424q-3.514-1.813-7.024-3.634c-.855-.443-1.7-.9-2.567-1.322a.467.467,0,0,1-.311-.494C184.125,82.321,184.119,80.57,184.12,78.819Z" transform="translate(-168.26 -65.733)" fill="#fff"/>
  </g>
</svg>
