<svg xmlns="http://www.w3.org/2000/svg" width="41.999" height="41.999" viewBox="0 0 41.999 41.999">
  <g id="customer" transform="translate(-1 -1)">
    <path id="Path_141" data-name="Path 141" d="M29.451,15.9a13.646,13.646,0,0,0-1.439.079A13.62,13.62,0,1,0,15.981,28.013,13.547,13.547,0,1,0,29.451,15.9Zm-14.9,10.838a12.273,12.273,0,1,1,12.07-10.536,13.373,13.373,0,0,0-1.434.4A10.874,10.874,0,1,0,16.6,25.184a13.566,13.566,0,0,0-.4,1.433A12.308,12.308,0,0,1,14.548,26.741Zm2.682-3.1a9.452,9.452,0,0,1-9.423-2.434,2.013,2.013,0,0,1,1.6-1.693l2.5-.507a2.746,2.746,0,0,0,.446-.177l2.2,2.948,2.2-2.954a2.9,2.9,0,0,0,.494.2l2.449.494a2.006,2.006,0,0,1,.425.142,13.6,13.6,0,0,0-2.887,3.986Zm-6.069-9.094a.677.677,0,1,1,0-1.355Zm.528-2.71h-.528a2,2,0,0,0-.513.074,3.136,3.136,0,0,1,2.99-4.138h1.82a3.136,3.136,0,0,1,2.989,4.138,2,2,0,0,0-.513-.074H16.063a5.764,5.764,0,0,1-2.567-.606l-.143-.071h-.16A2.022,2.022,0,0,0,11.689,11.838Zm6.246,1.355a.677.677,0,1,1,0,1.355ZM16.58,14.548a2.032,2.032,0,1,1-4.064,0V13.193a.679.679,0,0,1,.548-.665,7.135,7.135,0,0,0,3,.665h.518Zm-3.075,3.205a3.086,3.086,0,0,0,2.086,0c.038.066.079.13.123.192l-1.166,1.565-1.165-1.563C13.426,17.884,13.467,17.82,13.505,17.753Zm7.7.97a3.347,3.347,0,0,0-1.248-.536l-2.4-.482a1.348,1.348,0,0,1-.793-.621,3.393,3.393,0,0,0,.878-1.181h.288a2.028,2.028,0,0,0,1.662-3.2,4.5,4.5,0,0,0-4.139-6.288h-1.82A4.5,4.5,0,0,0,9.5,12.707a2.027,2.027,0,0,0,1.662,3.2h.287a3.391,3.391,0,0,0,.879,1.181,1.3,1.3,0,0,1-.742.608l-2.449.494a3.351,3.351,0,0,0-2.344,1.8A9.482,9.482,0,1,1,23.64,17.231a13.593,13.593,0,0,0-2.433,1.492Zm8.243,22.92A12.193,12.193,0,1,1,41.644,29.451,12.207,12.207,0,0,1,29.451,41.644Z" fill="#fff"/>
    <path id="Path_142" data-name="Path 142" d="M57.419,26.422l1.332-.247c-.089-.48-.2-.963-.324-1.435l-1.309.351C57.235,25.529,57.336,25.977,57.419,26.422Z" transform="translate(-18.104 -7.659)" fill="#fff"/>
    <path id="Path_143" data-name="Path 143" d="M41.032,8.064a2.02,2.02,0,0,0,1.483-.653A17.774,17.774,0,0,1,50.869,17.1l1.278-.451A19.137,19.137,0,0,0,43.052,6.164c0-.044.013-.087.013-.131a2.032,2.032,0,1,0-2.032,2.032Zm0-2.71a.677.677,0,1,1-.677.677A.679.679,0,0,1,41.032,5.355Z" transform="translate(-12.259 -0.968)" fill="#fff"/>
    <path id="Path_144" data-name="Path 144" d="M5.8,36.777l-1.332.247c.089.48.2.963.324,1.435L6.1,38.107c-.117-.437-.218-.885-.3-1.33Z" transform="translate(-1.12 -11.542)" fill="#fff"/>
    <path id="Path_145" data-name="Path 145" d="M16.707,49.7a2.02,2.02,0,0,0-1.483.653,17.779,17.779,0,0,1-8.353-9.685l-1.278.451A19.137,19.137,0,0,0,14.688,51.6c0,.044-.013.087-.013.131A2.032,2.032,0,1,0,16.707,49.7Zm0,2.71a.677.677,0,1,1,.677-.677A.679.679,0,0,1,16.707,52.408Z" transform="translate(-1.482 -12.797)" fill="#fff"/>
    <path id="Path_146" data-name="Path 146" d="M46.174,33.794h0a2.7,2.7,0,0,0-2.416-.749,2.793,2.793,0,0,0-1.468.8l-7.516,7.514-2.1-2.1a2.8,2.8,0,0,0-1.467-.8,2.712,2.712,0,0,0-3.165,3.164,2.793,2.793,0,0,0,.8,1.468l4.012,4.012a2.707,2.707,0,0,0,3.831,0l9.431-9.431a2.793,2.793,0,0,0,.8-1.468,2.7,2.7,0,0,0-.749-2.416Zm-.585,2.176a1.473,1.473,0,0,1-.425.75l-9.431,9.431a1.386,1.386,0,0,1-1.916,0L29.8,42.139a1.478,1.478,0,0,1-.425-.751,1.358,1.358,0,0,1,1.332-1.614,1.332,1.332,0,0,1,1.009.448l3.054,3.054L43.247,34.8A1.478,1.478,0,0,1,44,34.378a1.358,1.358,0,0,1,1.591,1.591Z" transform="translate(-8.71 -10.323)" fill="#fff"/>
  </g>
</svg>
