<svg xmlns="http://www.w3.org/2000/svg" width="39.188" height="39.188" viewBox="0 0 39.188 39.188">
  <g id="padlock" transform="translate(-57.326 -2.612)">
    <g id="img_525547" transform="translate(56.804 2.089)">
      <path id="Path_33" data-name="Path 33" d="M.522,21.116V18.957c.011-.091.025-.182.034-.273.06-.643.075-1.293.186-1.927A19.682,19.682,0,0,1,5.729,6.746a18.808,18.808,0,0,1,6.59-4.653A16.916,16.916,0,0,1,18.1.588c.3-.015.6-.043.894-.065h2.119a2.126,2.126,0,0,0,.235.031,15.505,15.505,0,0,1,4.031.636,19.53,19.53,0,0,1,11.991,9.622A18.723,18.723,0,0,1,39.6,17.989c.042.4.077.805.115,1.208v1.719a2.112,2.112,0,0,0-.032.213,17.664,17.664,0,0,1-.4,3.026A19.415,19.415,0,0,1,29.141,37.5,18.548,18.548,0,0,1,22.127,39.6c-.417.042-.834.076-1.252.114h-1.56c-.43-.039-.861-.073-1.29-.116a18.84,18.84,0,0,1-5.438-1.375,19.464,19.464,0,0,1-9.2-7.868,18.336,18.336,0,0,1-2.8-8.363C.57,21.7.545,21.407.522,21.116Zm19.624,16.2A17.224,17.224,0,1,0,2.884,20.209,17.263,17.263,0,0,0,20.146,37.314Z" fill="#fff"/>
      <path id="Path_34" data-name="Path 34" d="M170.325,112.95c-.1,0-.183,0-.268,0q-1.468-.021-2.936-.045a1.712,1.712,0,0,1-.216-.034.262.262,0,0,1-.253-.319c.076-.5.14-1.014.259-1.51a5.128,5.128,0,0,1,3.253-3.5,7.476,7.476,0,0,1,3.028-.518,10.262,10.262,0,0,1,2.718.232,5.9,5.9,0,0,1,4.431,6.3,7.266,7.266,0,0,1-2.184,4.629c-.711.711-1.4,1.441-2.095,2.172a6.454,6.454,0,0,0-.543.69,2.266,2.266,0,0,0-.44,1.4,4.676,4.676,0,0,1-.028.518.425.425,0,0,1-.374.409,3.887,3.887,0,0,1-.654.073c-.919.01-1.839.009-2.758.01a1.1,1.1,0,0,1-.122-.016c.055-.482.124-.956.161-1.431a5.007,5.007,0,0,1,1.657-3.165c.76-.766,1.514-1.538,2.244-2.333a4.766,4.766,0,0,0,1.21-2.086,4.617,4.617,0,0,0,.014-2.216,2.539,2.539,0,0,0-2.277-2.018,4.58,4.58,0,0,0-2.2.256,2.247,2.247,0,0,0-1.545,1.976C170.386,112.6,170.354,112.764,170.325,112.95Z" transform="translate(-153.409 -98.344)" fill="#fff"/>
      <path id="Path_35" data-name="Path 35" d="M229.736,358.823v3.583h-3.892v-3.583Z" transform="translate(-208.076 -330.876)" fill="#fff"/>
    </g>
  </g>
</svg>
