<svg xmlns="http://www.w3.org/2000/svg" width="41.807" height="30" viewBox="0 0 41.807 30">
  <g id="id-icon" transform="translate(-320.596 -301)">
    <g id="driver-license" transform="translate(320.596 228.7)">
      <path id="Path_70" data-name="Path 70" d="M136.489,234.943a2.055,2.055,0,1,0-2.055-2.055A2.057,2.057,0,0,0,136.489,234.943Z" transform="translate(-123.457 -145.588)" fill="#fff"/>
      <path id="Path_71" data-name="Path 71" d="M116.5,311.167a4.03,4.03,0,0,0-3.832,2.8h7.665A4.03,4.03,0,0,0,116.5,311.167Z" transform="translate(-103.467 -219.362)" fill="#fff"/>
      <path id="Path_72" data-name="Path 72" d="M37.959,72.3H3.849A3.848,3.848,0,0,0,0,76.149v22.3A3.848,3.848,0,0,0,3.849,102.3h34.11a3.848,3.848,0,0,0,3.849-3.849v-22.3A3.848,3.848,0,0,0,37.959,72.3ZM18.28,97.052H7.784A1.225,1.225,0,0,1,6.56,95.828,6.475,6.475,0,0,1,9.673,90.3a4.5,4.5,0,1,1,6.719,0A6.475,6.475,0,0,1,19.5,95.828a1.225,1.225,0,0,1-1.225,1.225Zm13.119,0h-6.56a1.225,1.225,0,1,1,0-2.45H31.4a1.225,1.225,0,1,1,0,2.45ZM34.023,91.8H24.839a1.225,1.225,0,0,1,0-2.45h9.183a1.225,1.225,0,0,1,0,2.45Zm0-5.248H24.839a1.225,1.225,0,1,1,0-2.45h9.183a1.225,1.225,0,0,1,0,2.45Zm0-6.56H7.784a1.225,1.225,0,0,1,0-2.45H34.023a1.225,1.225,0,0,1,0,2.45Z" fill="#fff"/>
    </g>
  </g>
</svg>
