<svg xmlns="http://www.w3.org/2000/svg" width="36.128" height="29.793" viewBox="0 0 36.128 29.793">
  <g id="images-interface-symbol" transform="translate(0 -3.168)">
    <path id="Path_49" data-name="Path 49" d="M30.32,7.163H1.811A1.812,1.812,0,0,0,0,8.975V31.15a1.813,1.813,0,0,0,1.811,1.811H30.32a1.813,1.813,0,0,0,1.812-1.811V8.974A1.813,1.813,0,0,0,30.32,7.163Zm-1.81,3.621V27.107l-4.141-5.026a.45.45,0,0,0-.615-.076l-4.816,3.517-8.27-8.045a.469.469,0,0,0-.358-.127.451.451,0,0,0-.329.191l-6.359,9.1V10.784ZM17.65,17.573a2.941,2.941,0,1,1,2.94,2.941A2.945,2.945,0,0,1,17.65,17.573ZM34.771,26.4a1.356,1.356,0,0,1-1.356-1.356V5.88H5.206a1.356,1.356,0,1,1,0-2.712H34.771a1.356,1.356,0,0,1,1.357,1.356V25.041A1.356,1.356,0,0,1,34.771,26.4Z" transform="translate(0)" fill="#fff"/>
  </g>
</svg>
