<svg xmlns="http://www.w3.org/2000/svg" width="33.347" height="23.447" viewBox="0 0 33.347 23.447">
  <g id="mail" transform="translate(0 -76)">
    <g id="Group_21" data-name="Group 21" transform="translate(22.94 77.675)">
      <g id="Group_20" data-name="Group 20">
        <path id="Path_79" data-name="Path 79" d="M362.324,101.721l-10.113,10.048,10.113,10.048a2.9,2.9,0,0,0,.294-1.256V102.977A2.9,2.9,0,0,0,362.324,101.721Z" transform="translate(-352.211 -101.721)" fill="#fff"/>
      </g>
    </g>
    <g id="Group_23" data-name="Group 23" transform="translate(1.675 76)">
      <g id="Group_22" data-name="Group 22">
        <path id="Path_80" data-name="Path 80" d="M54.462,76H26.977a2.9,2.9,0,0,0-1.256.294L38.647,89.155a2.933,2.933,0,0,0,4.144,0L55.717,76.294A2.9,2.9,0,0,0,54.462,76Z" transform="translate(-25.721 -76)" fill="#fff"/>
      </g>
    </g>
    <g id="Group_25" data-name="Group 25" transform="translate(0 77.675)">
      <g id="Group_24" data-name="Group 24">
        <path id="Path_81" data-name="Path 81" d="M.294,101.721A2.9,2.9,0,0,0,0,102.977v17.585a2.9,2.9,0,0,0,.294,1.256l10.113-10.048Z" transform="translate(0 -101.721)" fill="#fff"/>
      </g>
    </g>
    <g id="Group_27" data-name="Group 27" transform="translate(1.675 89.105)">
      <g id="Group_26" data-name="Group 26">
        <path id="Path_82" data-name="Path 82" d="M45.6,277.211l-1.431,1.431a4.89,4.89,0,0,1-6.907,0l-1.431-1.431L25.721,287.259a2.9,2.9,0,0,0,1.256.294H54.462a2.9,2.9,0,0,0,1.256-.294Z" transform="translate(-25.721 -277.211)" fill="#fff"/>
      </g>
    </g>
  </g>
</svg>
