<svg xmlns="http://www.w3.org/2000/svg" width="37.966" height="37.774" viewBox="0 0 37.966 37.774">
  <g id="map-pin-marked" transform="translate(-0.8 -1.928)">
    <path id="Path_50" data-name="Path 50" d="M.8,287.929a5.347,5.347,0,0,1,3.108-2.888,25.248,25.248,0,0,1,6.769-1.979c1.058-.184,2.126-.308,3.192-.443a.474.474,0,0,1,.377.123c.672.886,1.325,1.786,1.981,2.684a.853.853,0,0,1,.065.157c-4.078.354-8.107.807-11.8,2.675l-.017.135c.483.229.956.484,1.451.683a27.4,27.4,0,0,0,6.309,1.585,53.367,53.367,0,0,0,10.353.452,37.408,37.408,0,0,0,10.2-1.714c.665-.223,1.3-.542,1.943-.823.122-.053.233-.132.441-.251-.505-.25-.928-.494-1.376-.674a26.942,26.942,0,0,0-6.6-1.647c-1.237-.162-2.481-.265-3.721-.4-.058-.006-.116-.02-.209-.036a2.322,2.322,0,0,1,.132-.239c.62-.848,1.237-1.7,1.869-2.536a.482.482,0,0,1,.351-.19,32.588,32.588,0,0,1,9.63,2.247A13.251,13.251,0,0,1,37,285.81,3.767,3.767,0,0,1,38.766,288v.742a4.191,4.191,0,0,1-2.17,2.364,23.854,23.854,0,0,1-3.247,1.42,40.014,40.014,0,0,1-10.676,1.762,54.242,54.242,0,0,1-11.78-.638,26.433,26.433,0,0,1-6.714-1.9c-1.422-.654-2.793-1.4-3.378-3.012Q.8,288.337.8,287.929Z" transform="translate(0 -254.666)" fill="#fff"/>
    <path id="Path_51" data-name="Path 51" d="M108.158,31.4c-.981-1.3-1.951-2.527-2.867-3.8a49.293,49.293,0,0,1-5.445-9.28,18.842,18.842,0,0,1-1.561-5.652,9.939,9.939,0,0,1,19.746-2.216,11.964,11.964,0,0,1-.614,5.51,35.239,35.239,0,0,1-3.773,7.822,67.5,67.5,0,0,1-5.185,7.264C108.381,31.145,108.3,31.236,108.158,31.4Zm.043-15.238a4.9,4.9,0,1,0-4.908-4.888A4.886,4.886,0,0,0,108.2,16.164Z" transform="translate(-88.411 0)" fill="#fff"/>
    <path id="Path_52" data-name="Path 52" d="M184.473,79.167a2.4,2.4,0,1,1-2.392-2.406A2.407,2.407,0,0,1,184.473,79.167Z" transform="translate(-162.289 -67.898)" fill="#fff"/>
  </g>
</svg>
