<svg xmlns="http://www.w3.org/2000/svg" width="34.4" height="34.4" viewBox="0 0 34.4 34.4">
  <g id="newspaper" transform="translate(-0.749 -0.751)">
    <path id="Path_36" data-name="Path 36" d="M35.149,3.506V31.388c-.023.073-.051.144-.067.218a4.256,4.256,0,0,1-2.958,3.346c-.24.082-.491.133-.737.2H4.511a.824.824,0,0,0-.152-.059A4.3,4.3,0,0,1,.848,31.771c-.03-.128-.066-.255-.1-.383V8.881a.527.527,0,0,0,.057-.115A3.146,3.146,0,0,1,3.523,6.174a10.873,10.873,0,0,1,1.529-.011c0-.8-.021-1.539,0-2.273a3.043,3.043,0,0,1,1.5-2.619A8.232,8.232,0,0,1,7.8.751h24.59a1.592,1.592,0,0,0,.181.066A3.211,3.211,0,0,1,34.986,2.97C35.049,3.145,35.095,3.327,35.149,3.506Zm-30.1,4.77H4.2c-.913,0-1.3.39-1.3,1.313q0,10.514,0,21.029A2.169,2.169,0,0,0,5.268,33H30.63A2.17,2.17,0,0,0,33,30.617q0-13.2,0-26.4c0-.922-.387-1.312-1.3-1.312H8.519c-.941,0-1.32.38-1.32,1.325q0,12.614,0,25.228c0,.134.006.269,0,.4a1.082,1.082,0,0,1-.844.97,1.034,1.034,0,0,1-1.143-.511,1.752,1.752,0,0,1-.152-.741q-.012-10.43-.006-20.861C5.049,8.58,5.049,8.448,5.049,8.276Z" fill="#fff"/>
    <path id="Path_37" data-name="Path 37" d="M96.736,53.568q0-1.8,0-3.593a1.086,1.086,0,0,1,1.2-1.206q3.627,0,7.253,0A1.1,1.1,0,0,1,106.41,50q0,3.61,0,7.22a1.091,1.091,0,0,1-1.221,1.223q-3.627,0-7.253,0a1.091,1.091,0,0,1-1.2-1.211Q96.734,55.4,96.736,53.568Zm7.5,2.707V50.942H98.9v5.334Z" transform="translate(-87.387 -43.714)" fill="#fff"/>
    <path id="Path_38" data-name="Path 38" d="M107.523,181.809H97.614a1.978,1.978,0,0,1-.335-.008.532.532,0,0,1-.033-1.05,1.441,1.441,0,0,1,.334-.015h19.952a1.6,1.6,0,0,1,.3.009.533.533,0,0,1-.033,1.06c-.111.011-.224,0-.336,0Z" transform="translate(-87.458 -163.856)" fill="#fff"/>
    <path id="Path_39" data-name="Path 39" d="M107.522,217.8H97.614a2,2,0,0,1-.335-.008.532.532,0,0,1-.032-1.05,1.431,1.431,0,0,1,.334-.015h19.952a1.586,1.586,0,0,1,.3.009.532.532,0,0,1-.033,1.06c-.111.011-.224,0-.336,0Z" transform="translate(-87.458 -196.627)" fill="#fff"/>
    <path id="Path_40" data-name="Path 40" d="M101.586,253.785c-1.4,0-2.8,0-4.2,0a.564.564,0,0,1-.608-.372.527.527,0,0,1,.472-.7c.2-.019.4-.007.6-.007h7.691c.09,0,.179,0,.269,0a.55.55,0,0,1,.6.537.539.539,0,0,1-.6.535c-.907.005-1.814,0-2.72,0Z" transform="translate(-87.399 -229.382)" fill="#fff"/>
    <path id="Path_41" data-name="Path 41" d="M233.567,253.782c-1.4,0-2.8,0-4.2,0a.562.562,0,0,1-.607-.373.527.527,0,0,1,.474-.7c.222-.02.447-.007.671-.007h7.624c.09,0,.179,0,.269,0a.55.55,0,0,1,.6.538.54.54,0,0,1-.6.533c-.952.005-1.9,0-2.855,0Z" transform="translate(-207.556 -229.379)" fill="#fff"/>
    <path id="Path_42" data-name="Path 42" d="M101.815,289.727c-1.377,0-2.754,0-4.131,0a.674.674,0,0,1-.439-.1.692.692,0,0,1-.217-.509c.038-.169.24-.317.4-.435.074-.055.217-.022.329-.022h8.161c.067,0,.135,0,.2,0a.546.546,0,0,1,.55.557.528.528,0,0,1-.555.512c-.6.01-1.209,0-1.814,0Z" transform="translate(-87.649 -262.099)" fill="#fff"/>
    <path id="Path_43" data-name="Path 43" d="M233.628,289.8h-4.064a1.779,1.779,0,0,1-.3-.008.532.532,0,0,1-.035-1.05,1.617,1.617,0,0,1,.368-.016h8.061c.067,0,.134,0,.2,0a.551.551,0,0,1,.6.537.54.54,0,0,1-.6.535c-.716.006-1.433,0-2.149,0Z" transform="translate(-207.616 -262.168)" fill="#fff"/>
    <path id="Path_44" data-name="Path 44" d="M101.611,325.791h-4.03a1.754,1.754,0,0,1-.3-.008.532.532,0,0,1-.032-1.05,1.62,1.62,0,0,1,.368-.015h8.06c.09,0,.18,0,.269,0a.54.54,0,0,1,.536.536.534.534,0,0,1-.536.533c-.089.006-.179,0-.269,0Z" transform="translate(-87.459 -294.938)" fill="#fff"/>
    <path id="Path_45" data-name="Path 45" d="M233.565,325.777c-1.4,0-2.8,0-4.2,0a.562.562,0,0,1-.607-.374.531.531,0,0,1,.507-.7c.234-.015.47,0,.705,0h7.557c.09,0,.179,0,.269,0a.551.551,0,0,1,.6.539.54.54,0,0,1-.6.533c-.952.005-1.9,0-2.855,0Z" transform="translate(-207.554 -294.924)" fill="#fff"/>
    <path id="Path_46" data-name="Path 46" d="M233.538,73.83c-1.388,0-2.776,0-4.165,0a.569.569,0,0,1-.582-.309.528.528,0,0,1,.412-.757,2.108,2.108,0,0,1,.335-.01H237.6c.067,0,.134,0,.2,0a.554.554,0,0,1,.6.538.539.539,0,0,1-.6.534c-.963,0-1.926,0-2.888,0Z" transform="translate(-207.561 -65.552)" fill="#fff"/>
    <path id="Path_47" data-name="Path 47" d="M233.566,109.83c-1.411,0-2.821,0-4.232,0a.533.533,0,0,1-.594-.541.545.545,0,0,1,.576-.53c.089,0,.179,0,.269,0h6.381c.582,0,1.164,0,1.746,0,.445,0,.7.205.7.547s-.25.523-.678.527h-4.165Z" transform="translate(-207.565 -98.327)" fill="#fff"/>
    <path id="Path_48" data-name="Path 48" d="M233.6,145.818h-4.064a1.82,1.82,0,0,1-.3-.008.531.531,0,0,1-.06-1.041,1.37,1.37,0,0,1,.366-.025h8.128a1.561,1.561,0,0,1,.3.01.532.532,0,0,1-.038,1.059c-.156.013-.313,0-.47,0Z" transform="translate(-207.594 -131.09)" fill="#fff"/>
  </g>
</svg>
