<svg xmlns="http://www.w3.org/2000/svg" width="30" height="30.063" viewBox="0 0 30 30.063">
  <g id="phone-call" transform="translate(-0.539 0)">
    <g id="Group_10" data-name="Group 10" transform="translate(0.539 0)">
      <path id="Path_53" data-name="Path 53" d="M29.753,22.063l-4.2-4.2a2.79,2.79,0,0,0-4.645,1.049,2.855,2.855,0,0,1-3.3,1.8c-3-.749-7.042-4.645-7.792-7.792a2.716,2.716,0,0,1,1.8-3.3,2.79,2.79,0,0,0,1.049-4.645l-4.2-4.2a2.993,2.993,0,0,0-4.046,0L1.583,3.634c-2.847,3,.3,10.938,7.342,17.98s14.984,10.339,17.98,7.342l2.847-2.847A2.992,2.992,0,0,0,29.753,22.063Z" transform="translate(-0.539 0)" fill="#fff"/>
    </g>
  </g>
</svg>
