<svg xmlns="http://www.w3.org/2000/svg" width="33.015" height="32.955" viewBox="0 0 33.015 32.955">
  <g id="university" transform="translate(0 0)">
    <path id="Path_73" data-name="Path 73" d="M33.015,11.131V7.607L16.507,0,0,7.607v3.524ZM16.475,3.187a2.964,2.964,0,1,1-2.964,2.964,2.968,2.968,0,0,1,2.964-2.964Zm0,0" transform="translate(0 0)" fill="#fff"/>
    <path id="Path_74" data-name="Path 74" d="M240.557,81.493a1.03,1.03,0,1,0-1.03-1.03A1.031,1.031,0,0,0,240.557,81.493Zm0,0" transform="translate(-224.082 -74.312)" fill="#fff"/>
    <path id="Path_75" data-name="Path 75" d="M54.629,212.39H52.144v-9.766H45.86v9.766H42.07v-9.766H35.785v9.766H32v-9.766H25.711v9.766H24v3.692H54.629Zm0,0" transform="translate(-22.453 -189.56)" fill="#fff"/>
    <path id="Path_76" data-name="Path 76" d="M0,441.32H33.015v4.5H0Zm0,0" transform="translate(0 -412.863)" fill="#fff"/>
  </g>
</svg>
