<svg xmlns="http://www.w3.org/2000/svg" width="28" height="31.858" viewBox="0 0 28 31.858">
  <g id="user" transform="translate(-31)">
    <g id="Group_16" data-name="Group 16" transform="translate(36.6)">
      <g id="Group_15" data-name="Group 15" transform="translate(0)">
        <path id="Path_77" data-name="Path 77" d="M129.4,0a8.4,8.4,0,1,0,8.4,8.4A8.41,8.41,0,0,0,129.4,0Z" transform="translate(-121)" fill="#fff"/>
      </g>
    </g>
    <g id="Group_18" data-name="Group 18" transform="translate(31 18.667)">
      <g id="Group_17" data-name="Group 17" transform="translate(0)">
        <path id="Path_78" data-name="Path 78" d="M55.451,303.621A11.975,11.975,0,0,0,46.867,300H43.133a11.975,11.975,0,0,0-8.585,3.621A12.242,12.242,0,0,0,31,312.258a.933.933,0,0,0,.933.933H58.067a.933.933,0,0,0,.933-.933A12.242,12.242,0,0,0,55.451,303.621Z" transform="translate(-31 -300)" fill="#fff"/>
      </g>
    </g>
  </g>
</svg>
